<svg width="55" height="55" viewBox="0 0 55 55" fill="none" xmlns="http://www.w3.org/2000/svg">
<path d="M50.166 1.71875H4.83398C2.16858 1.71875 0 3.88733 0 6.55273V48.4473C0 51.1127 2.16858 53.2812 4.83398 53.2812H50.166C52.8314 53.2812 55 51.1127 55 48.4473V6.55273C55 3.88733 52.8314 1.71875 50.166 1.71875ZM51.7773 48.4473C51.7773 49.3356 51.0543 50.0586 50.166 50.0586H4.83398C3.94566 50.0586 3.22266 49.3356 3.22266 48.4473V6.55273C3.22266 5.66441 3.94566 4.94141 4.83398 4.94141H50.166C51.0543 4.94141 51.7773 5.66441 51.7773 6.55273V48.4473Z" fill="#FFA000"/>
<path d="M9.66797 45.2246C9.66797 46.1146 8.94665 46.8359 8.05664 46.8359C7.16663 46.8359 6.44531 46.1146 6.44531 45.2246C6.44531 44.3346 7.16663 43.6133 8.05664 43.6133C8.94665 43.6133 9.66797 44.3346 9.66797 45.2246Z" fill="#FFA000"/>
<path d="M16.1133 45.2246C16.1133 46.1146 15.392 46.8359 14.502 46.8359C13.6119 46.8359 12.8906 46.1146 12.8906 45.2246C12.8906 44.3346 13.6119 43.6133 14.502 43.6133C15.392 43.6133 16.1133 44.3346 16.1133 45.2246Z" fill="#FFA000"/>
<path d="M22.5586 45.2246C22.5586 46.1146 21.8373 46.8359 20.9473 46.8359C20.0573 46.8359 19.3359 46.1146 19.3359 45.2246C19.3359 44.3346 20.0573 43.6133 20.9473 43.6133C21.8373 43.6133 22.5586 44.3346 22.5586 45.2246Z" fill="#FFA000"/>
<path d="M46.9434 8.16406H8.05664C7.16663 8.16406 6.44531 8.88538 6.44531 9.77539V38.7793C6.44531 39.6693 7.16663 40.3906 8.05664 40.3906H46.9434C47.8334 40.3906 48.5547 39.6693 48.5547 38.7793V9.77539C48.5547 8.88538 47.8334 8.16406 46.9434 8.16406ZM45.332 37.168H9.66797V26.4258H15.791C16.2182 26.4258 16.6282 26.2563 16.9303 25.9537L20.0879 22.7965L27.5424 30.2506C27.8567 30.5653 28.2692 30.7227 28.6816 30.7227C29.0941 30.7227 29.5066 30.5653 29.8209 30.2506L34.1832 25.8887H40.498C41.3881 25.8887 42.1094 25.1674 42.1094 24.2773C42.1094 23.3873 41.3881 22.666 40.498 22.666H33.5156C33.0885 22.666 32.6785 22.8355 32.3764 23.1381L28.6816 26.8324L21.2271 19.3783C20.5981 18.7489 19.5776 18.7489 18.9486 19.3783L15.1234 23.2031H9.66797V11.3867H45.332V37.168Z" fill="#0F63A7"/>
<path d="M46.9434 43.6133H36.2012C35.3112 43.6133 34.5898 44.3346 34.5898 45.2246C34.5898 46.1146 35.3112 46.8359 36.2012 46.8359H46.9434C47.8334 46.8359 48.5547 46.1146 48.5547 45.2246C48.5547 44.3346 47.8334 43.6133 46.9434 43.6133Z" fill="#FFA000"/>
</svg>
