<svg width="65" height="65" viewBox="0 0 65 65" fill="none" xmlns="http://www.w3.org/2000/svg">
<path d="M38.7908 52.142H33.8652C33.1642 52.142 32.5958 52.7103 32.5958 53.4115C32.5958 54.1126 33.1642 54.6809 33.8652 54.6809H38.7908C39.551 54.6809 40.1695 55.2992 40.1695 56.0594C40.1695 56.8196 39.5512 57.438 38.7908 57.438H25.5314C23.5382 57.438 21.6639 56.5592 20.3893 55.0269L17.2184 51.2155C15.5169 49.1703 13.0407 47.9725 10.3912 47.8967V40.398H15.0651C17.3701 40.398 19.5525 41.2796 21.2107 42.8802L28.0544 49.4862C28.5382 49.9533 28.5608 50.7353 28.1047 51.2294C27.6398 51.7329 26.8507 51.7658 26.3455 51.3028L20.9725 46.3775C20.4559 45.9038 19.6528 45.9386 19.1792 46.4555C18.7054 46.9723 18.7403 47.7753 19.2571 48.2489L24.6301 53.1742C25.3548 53.8384 26.2718 54.1664 27.1865 54.1664C28.2077 54.1664 29.226 53.7575 29.9703 52.9512C31.3548 51.4513 31.2864 49.0775 29.8177 47.6597L22.9739 41.0537C20.84 38.9938 18.0312 37.8593 15.0651 37.8593H10.1447C9.66708 36.729 8.54698 35.9336 7.24469 35.9336H1.2694C0.568368 35.9336 0 36.5018 0 37.203V46.4854C0 47.1864 0.568368 47.7548 1.2694 47.7548C1.97044 47.7548 2.5388 47.1866 2.5388 46.4854V38.4723H7.24482C7.57998 38.4723 7.85254 38.745 7.85254 39.08V49.2544C7.85254 49.5894 7.57998 49.8621 7.24482 49.8621H5.92641C5.22538 49.8621 4.65701 50.4303 4.65701 51.1315C4.65701 51.8325 5.22538 52.4009 5.92641 52.4009H7.24469C8.5645 52.4009 9.69628 51.5838 10.1628 50.4292C12.1418 50.4405 14.0002 51.3169 15.2667 52.8393L18.4376 56.6507C20.1962 58.7645 22.7817 59.9768 25.5314 59.9768H38.7908C40.9508 59.9768 42.7082 58.2195 42.7082 56.0594C42.7082 53.8993 40.9508 52.142 38.7908 52.142Z" fill="#FFA000"/>
<path d="M63.7306 16.7493C63.0295 16.7493 62.4612 17.3176 62.4612 18.0187V26.5277H57.7551C57.42 26.5277 57.1474 26.255 57.1474 25.92V15.7456C57.1474 15.4106 57.42 15.1379 57.7551 15.1379H58.9804C59.6814 15.1379 60.2498 14.5697 60.2498 13.8685C60.2498 13.1675 59.6814 12.5991 58.9804 12.5991H57.7551C56.4353 12.5991 55.3036 13.4162 54.837 14.5708C52.8581 14.5595 50.9996 13.6832 49.7331 12.1607L46.5622 8.34949C44.8038 6.23559 42.2181 5.02319 39.4683 5.02319H26.2091C24.0492 5.02319 22.2917 6.78048 22.2917 8.94045C22.2917 11.1004 24.0492 12.8577 26.2091 12.8577H31.631C32.3321 12.8577 32.9004 12.2895 32.9004 11.5883C32.9004 10.8871 32.3321 10.3189 31.631 10.3189H26.2091C25.4489 10.3189 24.8304 9.70052 24.8304 8.94032C24.8304 8.18026 25.4488 7.56174 26.2091 7.56174H39.4685C41.4618 7.56174 43.3361 8.44051 44.6107 9.97283L47.7816 13.7841C49.4829 15.8293 51.9592 17.0271 54.6087 17.103V24.6017H49.9349C47.6299 24.6017 45.4474 23.7202 43.7893 22.1196L36.9455 15.5136C36.4617 15.0465 36.4391 14.2646 36.8953 13.7704C37.3602 13.2668 38.1493 13.234 38.6545 13.697L44.0276 18.6223C44.5444 19.0959 45.3472 19.0611 45.8211 18.5443C46.2947 18.0275 46.2598 17.2245 45.743 16.7508L40.3698 11.8257C38.8362 10.42 36.4409 10.5201 35.0297 12.0486C33.6451 13.5487 33.7136 15.9225 35.1823 17.3402L42.0261 23.9462C44.16 26.0061 46.9687 27.1405 49.9349 27.1405H54.8553C55.3329 28.2709 56.453 29.0663 57.7553 29.0663H63.7307C64.4317 29.0663 65.0001 28.4981 65.0001 27.7969V18.0185C65 17.3176 64.4316 16.7493 63.7306 16.7493Z" fill="#FFA000"/>
<path d="M40.9851 48.1969C40.6964 47.5581 39.9461 47.2731 39.3078 47.5616C38.6649 47.8416 38.3709 48.5896 38.6508 49.2322C38.8588 49.7099 39.3255 49.9951 39.8153 49.9951C39.9845 49.9951 40.1564 49.961 40.3214 49.8892C40.3267 49.8869 40.3435 49.8794 40.3487 49.8771C40.9877 49.5886 41.2737 48.8359 40.9851 48.1969Z" fill="#FFA000"/>
<path d="M44.1405 46.0595C43.7255 45.4959 42.9279 45.3786 42.3636 45.7917C41.798 46.2058 41.6751 47.0001 42.0892 47.5657C42.3379 47.9053 42.7233 48.0853 43.1143 48.0853C43.3746 48.0853 43.6373 48.0056 43.8632 47.8402C43.8653 47.8388 43.8772 47.8299 43.8791 47.8285C44.4414 47.4121 44.5554 46.623 44.1405 46.0595Z" fill="#FFA000"/>
<path d="M37.4363 49.6217C37.2917 48.9381 36.6205 48.5004 35.9362 48.6418C35.2527 48.7775 34.8058 49.4395 34.9369 50.1251C35.0532 50.7332 35.5852 51.1563 36.1823 51.1563C36.2612 51.1563 36.3416 51.1488 36.422 51.1335C36.4302 51.1318 36.451 51.1276 36.4594 51.1259C37.145 50.9805 37.5814 50.3074 37.4363 49.6217Z" fill="#FFA000"/>
<path d="M46.7925 43.2987C46.272 42.8292 45.4695 42.8705 44.9998 43.3911C44.9936 43.3981 44.979 43.4146 44.9729 43.4216C44.5148 43.9524 44.574 44.754 45.1048 45.2119C45.3446 45.4188 45.6396 45.5201 45.9333 45.5201C46.2858 45.5201 46.6363 45.3741 46.8869 45.0892C47.3544 44.5686 47.3124 43.7675 46.7925 43.2987ZM46.0836 44.369L45.9424 44.2413L46.0953 44.3792L46.0836 44.369Z" fill="#FFA000"/>
<path d="M50.0233 36.4194C49.3525 36.2159 48.6428 36.5987 48.4393 37.2696C48.2331 37.9397 48.6092 38.65 49.2792 38.8561C49.4035 38.8945 49.5292 38.9126 49.6528 38.9126C50.1954 38.9126 50.6978 38.562 50.8656 38.0162L50.8709 37.9988C51.0743 37.3279 50.6941 36.6228 50.0233 36.4194Z" fill="#FFA000"/>
<path d="M51.6493 29.8678C51.6465 29.8517 51.6435 29.8356 51.64 29.8194C51.4967 29.1334 50.8243 28.6945 50.1385 28.8376C49.4552 28.98 49.0158 29.6483 49.1534 30.3316C49.2698 30.9373 49.8006 31.3612 50.3983 31.3612C50.4726 31.3612 50.548 31.3547 50.6235 31.3411C51.3136 31.2176 51.7728 30.5579 51.6493 29.8678Z" fill="#FFA000"/>
<path d="M50.4851 32.6222C49.789 32.5607 49.1708 33.0768 49.1092 33.775C49.108 33.7873 49.1063 33.8123 49.1055 33.8247C49.0644 34.5245 49.5982 35.1253 50.2981 35.1664C50.3235 35.1679 50.3486 35.1687 50.3738 35.1687C51.0347 35.1687 51.5901 34.6576 51.6387 33.992C51.6966 33.2963 51.1814 32.6836 50.4851 32.6222Z" fill="#FFA000"/>
<path d="M48.7807 40.0313C48.1713 39.6859 47.3962 39.8999 47.0506 40.51L47.0329 40.5417C46.6987 41.1579 46.9243 41.934 47.5404 42.2682C47.7342 42.3734 47.9428 42.4232 48.1483 42.4232C48.5964 42.4232 49.0291 42.1856 49.2583 41.7631L48.1548 41.1357L49.2592 41.7616C49.6049 41.1516 49.3907 40.377 48.7807 40.0313Z" fill="#FFA000"/>
<path d="M25.7582 15.8564C25.4448 15.2293 24.6819 14.975 24.0553 15.2887L24.044 15.2943C23.4168 15.6078 23.1684 16.3674 23.4819 16.9944C23.704 17.4386 24.1539 17.6943 24.6203 17.6943C24.8125 17.6943 25.0075 17.6509 25.1905 17.5595C25.8176 17.246 26.0717 16.4836 25.7582 15.8564Z" fill="#FFA000"/>
<path d="M29.4305 14.798C29.2653 14.1168 28.58 13.6982 27.8976 13.8635C27.8918 13.8648 27.8738 13.8694 27.8679 13.8709C27.189 14.0459 26.7778 14.7387 26.9526 15.4175C27.1002 15.9903 27.614 16.371 28.1788 16.371C28.2834 16.371 28.3898 16.358 28.496 16.3307C29.1772 16.1655 29.5956 15.4793 29.4305 14.798Z" fill="#FFA000"/>
<path d="M22.4015 17.6869C21.9625 17.1414 21.1632 17.0557 20.617 17.4937L21.404 18.4897L20.6132 17.4966C20.0648 17.9333 19.9743 18.7319 20.4109 19.2803C20.6617 19.5952 21.0315 19.7591 21.4049 19.7591C21.6819 19.7591 21.9611 19.6687 22.1948 19.4827L22.2116 19.4692C22.7562 19.0293 22.8405 18.2325 22.4015 17.6869Z" fill="#FFA000"/>
<path d="M15.6334 26.7186C14.957 26.5343 14.2592 26.9328 14.0748 27.6092C14.0716 27.6207 14.0655 27.6447 14.0626 27.6564C13.8975 28.3375 14.316 29.0224 14.997 29.1878C15.0975 29.2122 15.1981 29.2239 15.2971 29.2239C15.8666 29.2239 16.3841 28.8374 16.5283 28.2614C16.7023 27.5901 16.3046 26.9017 15.6334 26.7186Z" fill="#FFA000"/>
<path d="M14.8247 30.4483C14.123 30.4093 13.5245 30.9424 13.4839 31.6422C13.4829 31.6585 13.4823 31.6748 13.4818 31.691C13.4612 32.3914 14.0123 32.975 14.7128 32.996C14.7258 32.9964 14.7385 32.9966 14.7513 32.9966C15.4317 32.9966 15.994 32.4567 16.0192 31.7732C16.0509 31.0801 15.5192 30.4887 14.8247 30.4483Z" fill="#FFA000"/>
<path d="M17.2309 23.2496C16.61 22.9238 15.8428 23.1631 15.5172 23.7839L15.4965 23.8248C15.1871 24.4536 15.4466 25.2131 16.0753 25.5227C16.2553 25.6114 16.4461 25.6533 16.6344 25.6533C17.1005 25.6533 17.5493 25.3954 17.7717 24.951C18.0878 24.3324 17.8477 23.5732 17.2309 23.2496Z" fill="#FFA000"/>
<path d="M19.5234 20.1955C18.9839 19.7478 18.1836 19.822 17.7359 20.3613C17.7298 20.3688 17.7158 20.3861 17.7097 20.3936C17.2745 20.9429 17.3676 21.7399 17.9167 22.1754C18.1497 22.3603 18.4278 22.45 18.704 22.45C19.0764 22.45 19.4455 22.287 19.6963 21.9744C20.136 21.4352 20.0599 20.641 19.5234 20.1955Z" fill="#FFA000"/>
<path d="M16.2591 35.2965C16.1356 34.6064 15.4756 34.1472 14.7858 34.2708C14.0957 34.3945 13.6365 35.054 13.7601 35.7441L13.7624 35.7566C13.8723 36.3702 14.4051 36.7963 15.007 36.7963C15.082 36.7963 15.1581 36.7897 15.2345 36.776C15.9246 36.6525 16.3828 35.9866 16.2591 35.2965Z" fill="#FFA000"/>
<path d="M36.8584 25.6604C35.2062 25.6604 33.6752 26.3418 32.5843 27.4916C31.4933 26.3418 29.9625 25.6604 28.3102 25.6604C25.0598 25.6604 22.4155 28.3047 22.4155 31.5551C22.4155 33.3089 23.1891 34.9596 24.5375 36.0839C24.5457 36.0907 24.554 36.0975 24.5624 36.1042L31.7963 41.8313C32.0271 42.0141 32.3057 42.1054 32.5842 42.1054C32.864 42.1054 33.1438 42.0132 33.3751 41.8289L40.9155 35.8227C40.9524 35.7934 40.9876 35.7619 41.021 35.7287C42.138 34.6146 42.7531 33.1325 42.7531 31.5551C42.7531 28.3047 40.1088 25.6604 36.8584 25.6604ZM39.2741 33.8848L32.582 39.2153L26.1519 34.1246C25.3907 33.4843 24.9543 32.5487 24.9543 31.5553C24.9542 29.7047 26.4597 28.1992 28.3102 28.1992C29.6725 28.1992 30.8899 29.0128 31.4117 30.272C31.6083 30.7461 32.0711 31.0554 32.5843 31.0554C33.0976 31.0554 33.5603 30.7463 33.757 30.272C34.2788 29.0128 35.4961 28.1992 36.8584 28.1992C38.7089 28.1992 40.2144 29.7047 40.2144 31.5552C40.2144 32.4314 39.8809 33.2561 39.2741 33.8848Z" fill="#0F63A7"/>
<path d="M1.26935 52.3966C1.96797 52.3966 2.53431 51.8303 2.53431 51.1317C2.53431 50.433 1.96797 49.8667 1.26935 49.8667C0.570736 49.8667 0.00439453 50.433 0.00439453 51.1317C0.00439453 51.8303 0.570736 52.3966 1.26935 52.3966Z" fill="#FFA000"/>
<path d="M63.7303 15.1334C64.4289 15.1334 64.9952 14.5671 64.9952 13.8685C64.9952 13.1699 64.4289 12.6035 63.7303 12.6035C63.0317 12.6035 62.4653 13.1699 62.4653 13.8685C62.4653 14.5671 63.0317 15.1334 63.7303 15.1334Z" fill="#FFA000"/>
</svg>
