<svg width="45" height="35" viewBox="0 0 45 35" fill="none" xmlns="http://www.w3.org/2000/svg">
<path d="M41.0449 0.361328H3.95508C1.77697 0.361328 0 2.13637 0 4.31641V30.6836C0 32.8563 1.76906 34.6387 3.95508 34.6387H41.0449C43.2176 34.6387 45 32.8696 45 30.6836V4.31641C45 2.14375 43.2309 0.361328 41.0449 0.361328ZM40.4988 2.99805L22.5838 20.9131L4.51397 2.99805H40.4988ZM2.63672 30.1376V4.84981L15.3351 17.4393L2.63672 30.1376ZM4.50114 32.002L17.2075 19.2956L21.6598 23.7097C22.1752 24.2206 23.0069 24.219 23.5201 23.7056L27.8613 19.3644L40.4989 32.002H4.50114ZM42.3633 30.1375L29.7258 17.5L42.3633 4.86238V30.1375Z" fill="white"/>
</svg>
