<svg width="14" height="14" viewBox="0 0 14 14" fill="none" xmlns="http://www.w3.org/2000/svg">
<path fill-rule="evenodd" clip-rule="evenodd" d="M8.09791 4.62745V3.25006C8.09791 2.62825 8.23529 2.31373 9.20055 2.31373H10.4116V0H8.39074C5.91433 0 5.0973 1.13517 5.0973 3.08376V4.62745H3.47046V6.94118H5.0973V13.8824H8.09791V6.94118H10.1369L10.4116 4.62745H8.09791Z" fill="#767676"/>
<mask id="mask0" mask-type="alpha" maskUnits="userSpaceOnUse" x="3" y="0" width="8" height="14">
<path fill-rule="evenodd" clip-rule="evenodd" d="M8.09791 4.62745V3.25006C8.09791 2.62825 8.23529 2.31373 9.20055 2.31373H10.4116V0H8.39074C5.91433 0 5.0973 1.13517 5.0973 3.08376V4.62745H3.47046V6.94118H5.0973V13.8824H8.09791V6.94118H10.1369L10.4116 4.62745H8.09791Z" fill="white"/>
</mask>
<g mask="url(#mask0)">
<rect width="14.7609" height="14.7609" fill="#EEF2F7"/>
</g>
</svg>
