<svg width="14" height="14" viewBox="0 0 14 14" fill="none" xmlns="http://www.w3.org/2000/svg">
<path d="M12.248 2.83361C12.2471 2.7495 12.2146 2.66708 12.1528 2.60523L9.64355 0.0960039C9.64344 0.0958945 9.64336 0.0958672 9.64325 0.0957852C9.584 0.0365859 9.50213 0 9.41176 0H2.44108C2.06053 0 1.75098 0.309531 1.75098 0.690074V13.3099C1.75098 13.6904 2.06051 14 2.44105 14H11.5587C11.9392 14 12.2487 13.6904 12.2487 13.3099V2.837C12.2488 2.83579 12.2482 2.83478 12.248 2.83361ZM9.73956 1.11921L11.1295 2.5092H9.77406C9.75506 2.5092 9.73956 2.4937 9.73956 2.47469V1.11921ZM11.5932 13.3099C11.5932 13.3289 11.5777 13.3444 11.5587 13.3444H2.44108C2.42207 13.3444 2.4066 13.3289 2.4066 13.3099V0.690074C2.4066 0.67107 2.42207 0.655594 2.44108 0.655594H9.08396V2.47469C9.08396 2.85521 9.39355 3.16482 9.77409 3.16482H11.5932V13.3099H11.5932Z" fill="#1B3349"/>
<path d="M9.90072 4.48486H4.09904C3.91802 4.48486 3.77124 4.63162 3.77124 4.81266C3.77124 4.99368 3.91802 5.14046 4.09904 5.14046H9.9007C10.0817 5.14046 10.2285 4.99368 10.2285 4.81266C10.2285 4.63162 10.0817 4.48486 9.90072 4.48486Z" fill="#1B3349"/>
<path d="M9.90072 6.46265H4.09904C3.91802 6.46265 3.77124 6.60943 3.77124 6.79044C3.77124 6.97146 3.91802 7.11824 4.09904 7.11824H9.9007C10.0817 7.11824 10.2285 6.97146 10.2285 6.79044C10.2285 6.60943 10.0817 6.46265 9.90072 6.46265Z" fill="#1B3349"/>
<path d="M9.90072 8.44092H4.09904C3.91802 8.44092 3.77124 8.5877 3.77124 8.76871C3.77124 8.94976 3.91802 9.09651 4.09904 9.09651H9.9007C10.0817 9.09651 10.2285 8.94976 10.2285 8.76871C10.2285 8.58773 10.0817 8.44092 9.90072 8.44092Z" fill="#1B3349"/>
<path d="M6.99988 10.4187H4.09904C3.91802 10.4187 3.77124 10.5655 3.77124 10.7465C3.77124 10.9275 3.91802 11.0743 4.09904 11.0743H6.99988C7.1809 11.0743 7.32768 10.9275 7.32768 10.7465C7.32768 10.5655 7.1809 10.4187 6.99988 10.4187Z" fill="#1B3349"/>
</svg>
