<svg width="60" height="60" viewBox="0 0 60 60" fill="none" xmlns="http://www.w3.org/2000/svg">
<path d="M49.4531 24.3174H45.9375V27.833H42.4219V31.3486H45.9375V34.8643H49.4531V31.3486H52.9688V27.833H49.4531V24.3174Z" fill="#0F63A7"/>
<path d="M27.0909 53.8958L28.2422 54.8936L29.3934 53.8958C34.9031 49.1208 40.027 45.0484 44.1352 41.3698C45.2627 41.7113 46.4578 41.8956 47.6953 41.8956C54.4801 41.8956 60 36.3757 60 29.5909C60 26.245 58.6569 23.2072 56.4824 20.9868C56.3933 12.178 50.1188 5.10645 41.543 5.10645C35.665 5.10645 31.1019 8.63027 28.2482 13.8226C25.4174 8.595 20.9242 5.10645 15.0586 5.10645C6.34852 5.10645 0 12.3615 0 21.1754C0 24.6656 1.03688 27.9663 3.22418 31.3487H0V34.8643H5.88199C10.6641 40.4176 18.1826 46.175 27.0909 53.8958ZM28.2428 50.2458C21.0969 44.1005 15.0125 39.29 10.6733 34.8643H17.0239L19.4531 30.0059L26.4844 44.0684L32.8443 31.3487H35.5168C36.0137 34.8069 37.9536 37.8048 40.7052 39.7112C37.1292 42.8426 32.8702 46.2744 28.2428 50.2458ZM47.6953 38.38C42.849 38.38 38.9062 34.4372 38.9062 29.5909C38.9062 24.7446 42.849 20.8018 47.6953 20.8018C52.5416 20.8018 56.4844 24.7446 56.4844 29.5909C56.4844 34.4372 52.5416 38.38 47.6953 38.38ZM3.51562 21.1754C3.51562 14.0189 8.47805 8.62219 15.0586 8.62219C22.7958 8.62219 25.4115 16.0211 26.6681 18.8096H29.8161C30.1369 18.0683 32.9872 8.62219 41.5429 8.62219C47.1671 8.62219 51.5967 12.6461 52.7017 18.3518C51.1714 17.6674 49.477 17.2862 47.6952 17.2862C41.5072 17.2862 36.3722 21.878 35.5166 27.8331H30.6712L26.4844 36.2072L19.4531 22.1447L14.8511 31.3487H7.55613C4.96641 28.0356 3.51562 24.7911 3.51562 21.1754Z" fill="#FFA000"/>
</svg>
