<svg width="15" height="14" viewBox="0 0 15 14" fill="none" xmlns="http://www.w3.org/2000/svg">
<path fill-rule="evenodd" clip-rule="evenodd" d="M13.4729 0H1.89165C1.25909 0 0.706055 0.455515 0.706055 1.08094V12.6893C0.706055 13.3184 1.25909 13.8787 1.89165 13.8787H13.4693C14.1055 13.8787 14.5826 13.3148 14.5826 12.6893V1.08094C14.5862 0.455515 14.1055 0 13.4729 0ZM5.00756 11.5687H3.01952V5.38676H5.00756V11.5687ZM4.08222 4.44672H4.06776C3.43158 4.44672 3.01952 3.97313 3.01952 3.38023C3.01952 2.7765 3.44243 2.31375 4.09306 2.31375C4.74369 2.31375 5.1413 2.77288 5.15576 3.38023C5.15576 3.97313 4.74369 4.44672 4.08222 4.44672ZM12.273 11.5687H10.2849V8.18851C10.2849 7.37871 9.99576 6.82558 9.27644 6.82558C8.72702 6.82558 8.4017 7.19795 8.25712 7.55947C8.2029 7.68962 8.18844 7.86676 8.18844 8.04752V11.5687H6.2004V5.38674H8.18844V6.24715C8.47761 5.83502 8.92944 5.24213 9.9813 5.24213C11.2862 5.24213 12.273 6.10255 12.273 7.95714V11.5687Z" fill="#EEF2F7"/>
<mask id="mask0" mask-type="alpha" maskUnits="userSpaceOnUse" x="0" y="0" width="15" height="14">
<path fill-rule="evenodd" clip-rule="evenodd" d="M13.4729 0H1.89165C1.25909 0 0.706055 0.455515 0.706055 1.08094V12.6893C0.706055 13.3184 1.25909 13.8787 1.89165 13.8787H13.4693C14.1055 13.8787 14.5826 13.3148 14.5826 12.6893V1.08094C14.5862 0.455515 14.1055 0 13.4729 0ZM5.00756 11.5687H3.01952V5.38676H5.00756V11.5687ZM4.08222 4.44672H4.06776C3.43158 4.44672 3.01952 3.97313 3.01952 3.38023C3.01952 2.7765 3.44243 2.31375 4.09306 2.31375C4.74369 2.31375 5.1413 2.77288 5.15576 3.38023C5.15576 3.97313 4.74369 4.44672 4.08222 4.44672ZM12.273 11.5687H10.2849V8.18851C10.2849 7.37871 9.99576 6.82558 9.27644 6.82558C8.72702 6.82558 8.4017 7.19795 8.25712 7.55947C8.2029 7.68962 8.18844 7.86676 8.18844 8.04752V11.5687H6.2004V5.38674H8.18844V6.24715C8.47761 5.83502 8.92944 5.24213 9.9813 5.24213C11.2862 5.24213 12.273 6.10255 12.273 7.95714V11.5687Z" fill="white"/>
</mask>
<g mask="url(#mask0)">
</g>
</svg>
