<svg width="42" height="42" viewBox="0 0 42 42" fill="none" xmlns="http://www.w3.org/2000/svg">
<g clip-path="url(#clip0)">
<path d="M35.3391 7.25816H6.6116C4.98174 7.1771 3.37976 7.70258 2.1145 8.73321L3.74245 9.78553L16.1005 17.7904C16.2212 17.8325 16.3316 17.9 16.4243 17.9882L20.9214 20.9114L38.1992 9.79452L39.8362 8.73321C38.5518 7.73822 36.9633 7.21712 35.3391 7.25816Z" fill="#FFA000"/>
<path d="M2.50119 11.1078L0.981167 10.1184C0.332348 11.2512 -0.00291099 12.5365 0.00979332 13.842L0.000799119 28.1338C-0.0220237 29.6577 0.444551 31.1489 1.33194 32.3881L2.60912 31.0659L14.3825 18.8338L2.50119 11.1078Z" fill="#FFA000"/>
<path d="M38.0913 32.2801L26.084 19.8322L21.497 22.8002L21.3441 22.8722H21.2721C21.1975 22.8816 21.1219 22.8816 21.0473 22.8722C20.9726 22.8816 20.8971 22.8816 20.8224 22.8722H20.7505L20.5346 22.8002L15.9836 19.8501L3.91333 32.3161L2.61816 33.6562C3.80607 34.4203 5.20029 34.8002 6.61159 34.7445H35.393C36.7988 34.7535 38.177 34.3535 39.3595 33.5933L38.0913 32.2801Z" fill="#FFA000"/>
<path d="M41.9947 28.1337V13.8689C42.0348 12.558 41.7078 11.2621 41.0503 10.1273L39.5213 11.1077L27.6489 18.7977L39.4134 31.0388L40.6995 32.379C41.5984 31.1508 42.055 29.6545 41.9947 28.1337Z" fill="#FFA000"/>
</g>
<defs>
<clipPath id="clip0">
<rect width="42" height="42" fill="white"/>
</clipPath>
</defs>
</svg>
