<svg width="45" height="45" viewBox="0 0 45 45" fill="none" xmlns="http://www.w3.org/2000/svg">
<path d="M43.8421 33.1904L38.2479 27.5963C36.7056 26.0541 34.196 26.0541 32.6538 27.5963L30.111 30.139C28.9426 31.3075 27.0413 31.3071 25.8734 30.1395L14.8519 19.1086C13.6807 17.9374 13.6805 16.0419 14.8519 14.8706C15.2614 14.461 16.4375 13.2849 17.3946 12.3278C18.9302 10.7924 18.9516 8.29056 17.3931 6.73225L11.8005 1.15717C10.2582 -0.385049 7.7486 -0.385049 6.21043 1.15313C5.05941 2.29412 4.68816 2.66221 4.17206 3.17382C-1.38967 8.73546 -1.38967 17.785 4.1718 23.3464L21.635 40.8187C27.2097 46.3936 36.2326 46.394 41.8078 40.8187L43.8421 38.7845C45.3844 37.2422 45.3844 34.7327 43.8421 33.1904ZM8.07107 3.02186C8.58515 2.50779 9.42152 2.5077 9.93726 3.02327L15.5299 8.59835C16.0452 9.11365 16.0452 9.94765 15.5299 10.463L14.5975 11.3954L7.14348 3.94137L8.07107 3.02186ZM23.5 38.9543L6.03675 21.4818C1.7338 17.1789 1.49728 10.4223 5.30937 5.83674L12.7418 13.2691C10.7888 15.483 10.8702 18.8565 12.9867 20.973L24.0079 32.0034C24.008 32.0035 24.0081 32.0037 24.0082 32.0037C26.1224 34.118 29.4958 34.2047 31.7124 32.2491L39.145 39.6817C34.574 43.4872 27.8326 43.2869 23.5 38.9543ZM41.9775 36.9198L41.0451 37.8523L33.5862 30.3933L34.5185 29.461C35.0326 28.9469 35.8691 28.9468 36.3833 29.461L41.9774 35.0551C42.4916 35.5693 42.4916 36.4058 41.9775 36.9198Z" fill="white"/>
</svg>
