<svg width="44" height="37" viewBox="0 0 44 37" fill="none" xmlns="http://www.w3.org/2000/svg">
<path d="M14.0824 16.653C12.9987 16.341 11.915 16.1827 10.8608 16.1827C9.23298 16.1827 7.87467 16.5547 6.82143 17.0102C7.83682 13.293 10.2761 6.87887 15.1352 6.15655C15.5852 6.08962 15.9539 5.76424 16.0767 5.32623L17.1387 1.52771C17.2282 1.20648 17.1752 0.862628 16.9919 0.583854C16.8087 0.305081 16.5142 0.119079 16.1842 0.0738471C15.8256 0.0249234 15.4601 0 15.0978 0C9.26529 0 3.48911 6.08778 1.05172 14.8045C-0.379054 19.9184 -0.798594 27.6068 2.72573 32.4461C4.69789 35.154 7.57513 36.6001 11.2776 36.7445C11.2928 36.745 11.3076 36.7454 11.3228 36.7454C15.8912 36.7454 19.9421 33.6688 21.1744 29.2643C21.9106 26.6311 21.5778 23.8697 20.2366 21.4868C18.9096 19.1306 16.7242 17.4132 14.0824 16.653Z" fill="#93B6D2"/>
<path d="M42.679 21.4872C41.3521 19.1306 39.1667 17.4132 36.5248 16.653C35.4411 16.341 34.3574 16.1827 33.3037 16.1827C31.6759 16.1827 30.3171 16.5547 29.2639 17.0102C30.2793 13.293 32.7185 6.87887 37.5781 6.15655C38.0281 6.08962 38.3964 5.76423 38.5196 5.32623L39.5816 1.52771C39.6712 1.20648 39.6181 0.862628 39.4348 0.583854C39.2521 0.305081 38.9576 0.119079 38.6271 0.0738471C38.269 0.0249234 37.9035 0 37.5407 0C31.7082 0 25.932 6.08778 23.4942 14.8045C22.0639 19.9184 21.6443 27.6068 25.1691 32.4471C27.1408 35.1545 30.0185 36.601 33.7205 36.745C33.7357 36.7454 33.7505 36.7459 33.7662 36.7459C38.3341 36.7459 42.3855 33.6692 43.6178 29.2647C44.353 26.6316 44.0198 23.8697 42.679 21.4872Z" fill="#93B6D2"/>
</svg>
