<svg width="55" height="55" viewBox="0 0 55 55" fill="none" xmlns="http://www.w3.org/2000/svg">
<g clip-path="url(#clip0)">
<path d="M54.9353 4.10611C54.8162 1.92136 53.0787 0.18403 50.8939 0.0647915C46.4855 -0.176048 37.8591 0.0582389 29.6104 4.32471C25.4054 6.49979 20.9581 10.1875 17.409 14.4422C17.3653 14.4947 17.3227 14.5474 17.2793 14.5999L9.22485 15.2221C7.89905 15.3246 6.71816 16.0195 5.9849 17.1285L0.489841 25.44C-0.0662818 26.2811 -0.15469 27.3337 0.253191 28.2557C0.661179 29.1778 1.4995 29.8204 2.49584 29.9748L9.28179 31.0258C9.25783 31.1577 9.23377 31.2895 9.21175 31.4214C8.98584 32.7728 9.43357 34.1622 10.4096 35.1381L19.8619 44.5905C20.6711 45.3997 21.7645 45.8458 22.8849 45.8458C23.1157 45.8458 23.3477 45.8268 23.5787 45.7883C23.7106 45.7662 23.8424 45.7422 23.9743 45.7182L25.0253 52.5043C25.1797 53.5006 25.8223 54.339 26.7442 54.7469C27.1278 54.9167 27.5337 55.0004 27.9379 55.0004C28.5054 55.0003 29.0689 54.8351 29.56 54.5104L37.8715 49.0152C38.9806 48.2818 39.6754 47.101 39.7777 45.7753L40.3999 37.7209C40.4524 37.6775 40.5052 37.6349 40.5577 37.5912C44.8125 34.0421 48.5003 29.5948 50.6753 25.3897C54.942 17.1407 55.1758 8.51417 54.9353 4.10611ZM36.0942 46.3269L28.1438 51.5834L27.1194 44.9699C30.4796 43.982 33.8035 42.3996 36.9702 40.2799L36.5649 45.5269C36.5397 45.8542 36.368 46.1459 36.0942 46.3269ZM22.1406 42.3118L12.6882 32.8594C12.4471 32.6181 12.3356 32.2792 12.3903 31.9528C12.6713 30.2724 13.1079 28.6727 13.6485 27.1658L27.8312 41.3485C26.0213 41.9968 24.4002 42.3835 23.0473 42.6098C22.7203 42.6641 22.3818 42.5529 22.1406 42.3118ZM9.4731 18.4352L14.72 18.0299C12.6002 21.1966 11.0178 24.5206 10.0299 27.8807L3.41655 26.8565L8.67313 18.9059C8.85425 18.632 9.1459 18.4605 9.4731 18.4352ZM38.4937 35.1163C35.8905 37.2876 33.3636 38.8582 31.0345 39.9946L15.0049 23.965C16.4936 20.9245 18.3104 18.3927 19.8837 16.5066C23.1681 12.569 27.253 9.17223 31.0911 7.18708C38.6616 3.27123 46.6377 3.06036 50.7185 3.28251C51.2586 3.31194 51.6882 3.74152 51.7176 4.28174C51.9401 8.36249 51.7288 16.3386 47.8129 23.9091C45.8279 27.7471 42.4311 31.8319 38.4937 35.1163Z" fill="#FFA000"/>
<path d="M1.64375 45.3253C2.05614 45.3253 2.46853 45.168 2.78306 44.8533L8.04383 39.5925C8.67311 38.9632 8.67311 37.943 8.04383 37.3138C7.41466 36.6845 6.39437 36.6845 5.76509 37.3138L0.504429 42.5745C-0.124849 43.2038 -0.124849 44.224 0.504429 44.8533C0.81896 45.1679 1.23135 45.3253 1.64375 45.3253Z" fill="#FFA000"/>
<path d="M12.8649 42.135C12.2357 41.5058 11.2154 41.5058 10.5862 42.135L0.471958 52.2493C-0.157319 52.8786 -0.157319 53.8988 0.471958 54.5281C0.786597 54.8427 1.19888 55 1.61127 55C2.02367 55 2.43606 54.8427 2.75059 54.528L12.8648 44.4138C13.4942 43.7845 13.4942 42.7643 12.8649 42.135Z" fill="#FFA000"/>
<path d="M15.4075 46.9561L10.1468 52.2169C9.51749 52.8461 9.51749 53.8663 10.1468 54.4956C10.4614 54.8102 10.8738 54.9676 11.2861 54.9676C11.6984 54.9676 12.1109 54.8103 12.4254 54.4956L17.6862 49.2348C18.3154 48.6056 18.3154 47.5854 17.6862 46.9561C17.057 46.3268 16.0367 46.3268 15.4075 46.9561Z" fill="#FFA000"/>
<path d="M36.8805 27.6599C36.1476 28.2983 35.3025 28.5888 34.3454 28.5313C33.3961 28.4829 32.4696 28.1044 31.5659 27.3957L30.9008 27.975C30.6203 28.2193 30.3152 28.3259 29.9857 28.2946C29.664 28.2725 29.381 28.1211 29.1367 27.8406C28.8923 27.5601 28.7773 27.2545 28.7916 26.9238C28.8138 26.6021 28.9651 26.3191 29.2456 26.0747L29.8564 25.5427C29.1082 24.428 28.6535 23.3122 28.4923 22.1954C28.45 21.9458 28.4607 21.7297 28.5243 21.5469C28.5958 21.3732 28.7356 21.1958 28.9437 21.0145C29.2152 20.778 29.5174 20.65 29.8505 20.6304C30.1914 20.6199 30.4565 20.7232 30.6457 20.9404C30.7402 21.049 30.8167 21.1733 30.8751 21.3135C30.9335 21.4536 30.9878 21.6529 31.038 21.9116C31.1676 22.4989 31.337 23.0038 31.546 23.4265C31.755 23.8492 32.029 24.2551 32.3679 24.6442C32.7856 25.1237 33.1778 25.4187 33.5444 25.529C33.928 25.6405 34.2781 25.5583 34.5948 25.2825C34.7849 25.1169 34.8717 24.906 34.8553 24.6497C34.8559 24.3946 34.7939 24.1224 34.6692 23.8332C34.5524 23.5529 34.3631 23.1529 34.1013 22.633C33.6821 21.8046 33.3693 21.0984 33.1629 20.5143C32.9655 19.9223 32.9144 19.3064 33.0095 18.6665C33.1137 18.0188 33.4825 17.4191 34.1159 16.8674C34.8398 16.2368 35.6894 15.9424 36.6646 15.9841C37.6399 16.0258 38.576 16.388 39.4731 17.0707L40.1517 16.4796C40.4232 16.2432 40.7237 16.1406 41.0533 16.1718C41.3919 16.1951 41.6794 16.3425 41.9158 16.614C42.1602 16.8945 42.2713 17.1956 42.2491 17.5172C42.2348 17.848 42.0874 18.1355 41.8069 18.3798L41.169 18.9355C41.7055 19.789 42.0589 20.7702 42.2291 21.8791C42.2624 22.1366 42.2388 22.3561 42.1582 22.5377C42.0946 22.7204 41.9678 22.8945 41.7777 23.0601C41.5063 23.2965 41.2001 23.42 40.8591 23.4305C40.5182 23.441 40.2531 23.3377 40.064 23.1206C39.9694 23.012 39.8969 22.8921 39.8464 22.7611C39.7959 22.63 39.7376 22.4261 39.6716 22.1494C39.6527 22.0545 39.6029 21.8512 39.5223 21.5395C39.4508 21.2199 39.3363 20.9058 39.179 20.5972C39.0386 20.2899 38.8462 19.9959 38.6019 19.7154C38.2472 19.3082 37.869 19.0568 37.4673 18.961C37.0747 18.8574 36.7291 18.9357 36.4305 19.1958C36.141 19.448 36.0499 19.7819 36.1573 20.1976C36.2648 20.6133 36.518 21.1963 36.9171 21.9468C37.3465 22.7504 37.6605 23.4397 37.859 24.0147C38.0654 24.5988 38.1126 25.2102 38.0005 25.8489C37.8963 26.4966 37.523 27.1003 36.8805 27.6599Z" fill="#0F63A7"/>
</g>
<defs>
<clipPath id="clip0">
<rect width="55" height="55" fill="white"/>
</clipPath>
</defs>
</svg>
