<svg width="15" height="14" viewBox="0 0 15 14" fill="none" xmlns="http://www.w3.org/2000/svg">
<path fill-rule="evenodd" clip-rule="evenodd" d="M14.2916 2.49513C13.7799 2.7216 13.233 2.87454 12.6566 2.94513C13.2448 2.59218 13.6976 2.03336 13.9093 1.36866C13.3594 1.69513 12.7507 1.93336 12.1009 2.05983C11.5804 1.50395 10.8394 1.15689 10.0219 1.15689C8.44869 1.15689 7.17542 2.43336 7.17542 4.00689C7.17542 4.23042 7.19894 4.44807 7.24893 4.65689C4.88177 4.53924 2.7822 3.40395 1.37955 1.67748C1.13548 2.09807 0.994332 2.58924 0.994332 3.10983C0.994332 4.09807 1.50011 4.9716 2.26466 5.48336C1.79417 5.4716 1.35308 5.34219 0.970808 5.12748C0.970808 5.13924 0.970808 5.15101 0.970808 5.16277C0.970808 6.54513 1.95296 7.69513 3.25563 7.95689C3.01745 8.0216 2.76456 8.05689 2.50579 8.05689C2.32347 8.05689 2.1441 8.03924 1.9706 8.00395C2.33229 9.1363 3.38502 9.95983 4.63182 9.98336C3.65849 10.7481 2.42933 11.2039 1.09431 11.2039C0.864947 11.2039 0.638523 11.1892 0.415039 11.1628C1.67066 11.9804 3.16742 12.451 4.77297 12.451C10.016 12.451 12.8801 8.10689 12.8801 4.33924C12.8801 4.21571 12.8772 4.09219 12.8713 3.9716C13.4271 3.56866 13.9093 3.06866 14.2916 2.49513Z" fill="#FFFDFD"/>
<mask id="mask0" mask-type="alpha" maskUnits="userSpaceOnUse" x="0" y="1" width="15" height="12">
<path fill-rule="evenodd" clip-rule="evenodd" d="M14.2916 2.49513C13.7799 2.7216 13.233 2.87454 12.6566 2.94513C13.2448 2.59218 13.6976 2.03336 13.9093 1.36866C13.3594 1.69513 12.7507 1.93336 12.1009 2.05983C11.5804 1.50395 10.8394 1.15689 10.0219 1.15689C8.44869 1.15689 7.17542 2.43336 7.17542 4.00689C7.17542 4.23042 7.19894 4.44807 7.24893 4.65689C4.88177 4.53924 2.7822 3.40395 1.37955 1.67748C1.13548 2.09807 0.994332 2.58924 0.994332 3.10983C0.994332 4.09807 1.50011 4.9716 2.26466 5.48336C1.79417 5.4716 1.35308 5.34219 0.970808 5.12748C0.970808 5.13924 0.970808 5.15101 0.970808 5.16277C0.970808 6.54513 1.95296 7.69513 3.25563 7.95689C3.01745 8.0216 2.76456 8.05689 2.50579 8.05689C2.32347 8.05689 2.1441 8.03924 1.9706 8.00395C2.33229 9.1363 3.38502 9.95983 4.63182 9.98336C3.65849 10.7481 2.42933 11.2039 1.09431 11.2039C0.864947 11.2039 0.638523 11.1892 0.415039 11.1628C1.67066 11.9804 3.16742 12.451 4.77297 12.451C10.016 12.451 12.8801 8.10689 12.8801 4.33924C12.8801 4.21571 12.8772 4.09219 12.8713 3.9716C13.4271 3.56866 13.9093 3.06866 14.2916 2.49513Z" fill="white"/>
</mask>
<g mask="url(#mask0)">
<rect x="0.411865" width="14.7609" height="14.7609" fill="#EEF2F7"/>
</g>
</svg>
