<svg width="14" height="14" viewBox="0 0 14 14" fill="none" xmlns="http://www.w3.org/2000/svg">
<path fill-rule="evenodd" clip-rule="evenodd" d="M13.908 4.02998C13.908 2.81223 13.0123 1.83262 11.9055 1.83262C10.4063 1.76226 8.87735 1.7352 7.31592 1.7352C7.23474 1.7352 7.15356 1.7352 7.07237 1.7352C6.99119 1.7352 6.91 1.7352 6.82882 1.7352C5.27009 1.7352 3.73843 1.76226 2.23924 1.83262C1.13514 1.83262 0.239414 2.81764 0.239414 4.03539C0.171761 4.99877 0.141994 5.96215 0.1447 6.92552C0.141994 7.8889 0.171761 8.85227 0.236708 9.81835C0.236708 11.0361 1.13243 12.0238 2.23653 12.0238C3.8115 12.0969 5.42705 12.1294 7.06967 12.1267C8.71499 12.1321 10.3251 12.0996 11.9028 12.0238C13.0096 12.0238 13.9053 11.0361 13.9053 9.81835C13.9703 8.85227 14 7.8889 13.9973 6.92281C14.0027 5.95944 13.973 4.99606 13.908 4.02998ZM5.74637 9.58035V4.26285L9.67025 6.92025L5.74637 9.58035Z" fill="white"/>
<mask id="mask0" mask-type="alpha" maskUnits="userSpaceOnUse" x="0" y="1" width="14" height="12">
<path fill-rule="evenodd" clip-rule="evenodd" d="M13.908 4.02998C13.908 2.81223 13.0123 1.83262 11.9055 1.83262C10.4063 1.76226 8.87735 1.7352 7.31592 1.7352C7.23474 1.7352 7.15356 1.7352 7.07237 1.7352C6.99119 1.7352 6.91 1.7352 6.82882 1.7352C5.27009 1.7352 3.73843 1.76226 2.23924 1.83262C1.13514 1.83262 0.239414 2.81764 0.239414 4.03539C0.171761 4.99877 0.141994 5.96215 0.1447 6.92552C0.141994 7.8889 0.171761 8.85227 0.236708 9.81835C0.236708 11.0361 1.13243 12.0238 2.23653 12.0238C3.8115 12.0969 5.42705 12.1294 7.06967 12.1267C8.71499 12.1321 10.3251 12.0996 11.9028 12.0238C13.0096 12.0238 13.9053 11.0361 13.9053 9.81835C13.9703 8.85227 14 7.8889 13.9973 6.92281C14.0027 5.95944 13.973 4.99606 13.908 4.02998ZM5.74637 9.58035V4.26285L9.67025 6.92025L5.74637 9.58035Z" fill="white"/>
</mask>
<g mask="url(#mask0)">
<rect x="0.117676" width="14.7609" height="14.7609" fill="#EEF2F7"/>
</g>
</svg>
